<?xml version="1.0" standalone="no"?><!DOCTYPE svg PUBLIC "-//W3C//DTD SVG 1.1//EN" "http://www.w3.org/Graphics/SVG/1.1/DTD/svg11.dtd"><svg t="1635750180426" class="icon" viewBox="0 0 1024 1024" version="1.1" xmlns="http://www.w3.org/2000/svg" p-id="71686" data-darkreader-inline-fill="" xmlns:xlink="http://www.w3.org/1999/xlink" width="128" height="128"><defs><style type="text/css"></style></defs><path d="M796.39 61.811H224.973c-90.169-0.067-163.319 72.965-163.386 163.134v571.221c0 90.242 73.15 163.392 163.386 163.392h571.159c90.169-0.034 163.235-73.156 163.201-163.325V225.007c0.073-90.063-72.88-163.123-162.943-163.196z m98.816 734.355c0 54.767-44.436 99.271-99.074 99.271H224.973c-54.789-0.073-99.198-44.476-99.265-99.271V225.007c0-54.632 44.498-99.074 99.265-99.074h571.159c54.638 0 99.074 44.442 99.074 99.074v571.159zM548.934 211.41h-80.798v110.875H247.031v322.996h76.887v-35.206h144.218v199.883h80.798V610.076h144.729v32.002h80.153V322.285H548.934V211.41z m-80.798 323.642H323.918V397.248h144.218v137.804z m225.527-137.804v137.804H548.934V397.248h144.729z" p-id="71687"></path></svg>